<svg width="35" height="35" viewBox="0 0 35 35" fill="none" xmlns="http://www.w3.org/2000/svg">
<path d="M13.125 21.3281C14.0311 21.3281 14.7656 20.5936 14.7656 19.6875C14.7656 18.7814 14.0311 18.0469 13.125 18.0469C12.2189 18.0469 11.4844 18.7814 11.4844 19.6875C11.4844 20.5936 12.2189 21.3281 13.125 21.3281Z" fill="white"/>
<path d="M21.875 21.3281C22.7811 21.3281 23.5156 20.5936 23.5156 19.6875C23.5156 18.7814 22.7811 18.0469 21.875 18.0469C20.9689 18.0469 20.2344 18.7814 20.2344 19.6875C20.2344 20.5936 20.9689 21.3281 21.875 21.3281Z" fill="white"/>
<path d="M10.1719 10.9374C12.5429 10.1943 15.0153 9.8253 17.5 9.84367C19.9847 9.8253 22.4571 10.1943 24.8281 10.9374" stroke="white" stroke-width="2" stroke-linecap="round" stroke-linejoin="round"/>
<path d="M24.8281 24.0625C22.4571 24.8056 19.9847 25.1746 17.5 25.1562C15.0153 25.1746 12.5429 24.8056 10.1719 24.0625" stroke="white" stroke-width="2" stroke-linecap="round" stroke-linejoin="round"/>
<path d="M21.1914 24.8965L22.8457 28.1777C22.9521 28.4015 23.1332 28.5812 23.3577 28.686C23.5823 28.7908 23.8363 28.8141 24.0762 28.752C27.4258 27.9316 30.3242 26.5098 32.4297 24.6777C32.5884 24.5377 32.7037 24.3551 32.7618 24.1516C32.82 23.948 32.8186 23.7321 32.7578 23.5293L28.123 8.05274C28.0779 7.89436 27.9963 7.74877 27.8847 7.62767C27.7731 7.50657 27.6346 7.41334 27.4805 7.35548C26.171 6.81827 24.8168 6.39737 23.4336 6.09766C23.1678 6.03945 22.8898 6.08114 22.6528 6.21479C22.4157 6.34844 22.2362 6.56469 22.1484 6.82227L21.0684 10.0899" stroke="white" stroke-width="2" stroke-linecap="round" stroke-linejoin="round"/>
<path d="M13.8086 24.8965L12.1543 28.1777C12.0479 28.4015 11.8668 28.5812 11.6423 28.686C11.4177 28.7908 11.1637 28.8141 10.9238 28.752C7.57423 27.9316 4.67579 26.5098 2.57033 24.6777C2.41159 24.5377 2.29632 24.3551 2.23817 24.1516C2.18001 23.948 2.18141 23.7321 2.2422 23.5293L6.87697 8.05274C6.92207 7.89436 7.00371 7.74877 7.11531 7.62767C7.22691 7.50657 7.36536 7.41334 7.51954 7.35548C8.82898 6.81827 10.1832 6.39737 11.5664 6.09766C11.8322 6.03945 12.1102 6.08114 12.3472 6.21479C12.5843 6.34844 12.7638 6.56469 12.8516 6.82227L13.9317 10.0899" stroke="white" stroke-width="2" stroke-linecap="round" stroke-linejoin="round"/>
<path d="M13.125 21.3281C14.0311 21.3281 14.7656 20.5936 14.7656 19.6875C14.7656 18.7814 14.0311 18.0469 13.125 18.0469C12.2189 18.0469 11.4844 18.7814 11.4844 19.6875C11.4844 20.5936 12.2189 21.3281 13.125 21.3281Z" fill="white"/>
<path d="M21.875 21.3281C22.7811 21.3281 23.5156 20.5936 23.5156 19.6875C23.5156 18.7814 22.7811 18.0469 21.875 18.0469C20.9689 18.0469 20.2344 18.7814 20.2344 19.6875C20.2344 20.5936 20.9689 21.3281 21.875 21.3281Z" fill="white"/>
<path d="M10.1719 10.9374C12.5429 10.1943 15.0153 9.8253 17.5 9.84367C19.9847 9.8253 22.4571 10.1943 24.8281 10.9374" stroke="white" stroke-width="2" stroke-linecap="round" stroke-linejoin="round"/>
<path d="M24.8281 24.0625C22.4571 24.8056 19.9847 25.1746 17.5 25.1562C15.0153 25.1746 12.5429 24.8056 10.1719 24.0625" stroke="white" stroke-width="2" stroke-linecap="round" stroke-linejoin="round"/>
<path d="M21.1914 24.8965L22.8457 28.1777C22.9521 28.4015 23.1332 28.5812 23.3577 28.686C23.5823 28.7908 23.8363 28.8141 24.0762 28.752C27.4258 27.9316 30.3242 26.5098 32.4297 24.6777C32.5884 24.5377 32.7037 24.3551 32.7618 24.1516C32.82 23.948 32.8186 23.7321 32.7578 23.5293L28.123 8.05274C28.0779 7.89436 27.9963 7.74877 27.8847 7.62767C27.7731 7.50657 27.6346 7.41334 27.4805 7.35548C26.171 6.81827 24.8168 6.39737 23.4336 6.09766C23.1678 6.03945 22.8898 6.08114 22.6528 6.21479C22.4157 6.34844 22.2362 6.56469 22.1484 6.82227L21.0684 10.0899" stroke="white" stroke-width="2" stroke-linecap="round" stroke-linejoin="round"/>
<path d="M13.8086 24.8965L12.1543 28.1777C12.0479 28.4015 11.8668 28.5812 11.6423 28.686C11.4177 28.7908 11.1637 28.8141 10.9238 28.752C7.57423 27.9316 4.67579 26.5098 2.57033 24.6777C2.41159 24.5377 2.29632 24.3551 2.23817 24.1516C2.18001 23.948 2.18141 23.7321 2.2422 23.5293L6.87697 8.05274C6.92207 7.89436 7.00371 7.74877 7.11531 7.62767C7.22691 7.50657 7.36536 7.41334 7.51954 7.35548C8.82898 6.81827 10.1832 6.39737 11.5664 6.09766C11.8322 6.03945 12.1102 6.08114 12.3472 6.21479C12.5843 6.34844 12.7638 6.56469 12.8516 6.82227L13.9317 10.0899" stroke="white" stroke-width="2" stroke-linecap="round" stroke-linejoin="round"/>
</svg>
