<svg width="80" height="81" viewBox="0 0 80 81" fill="none" xmlns="http://www.w3.org/2000/svg">
<g clip-path="url(#clip0_55_26)">
<path d="M38.3346 33.4526C38.3346 33.9365 38.274 34.481 38.0924 35.0254C37.9107 35.5698 37.6684 36.1143 37.2445 36.5982C36.8206 37.0822 36.3361 37.5056 35.7305 37.8081C35.1249 38.1105 34.3376 38.292 33.4898 38.292H18.2892C17.9864 38.292 17.7441 38.2315 17.5019 38.1105C17.2597 37.9895 17.0174 37.8686 16.8357 37.6871C16.6541 37.5056 16.5329 37.3241 16.4118 37.0217C16.2907 36.7797 16.2301 36.5377 16.2301 36.2353V18.2689C16.2301 17.9664 16.2907 17.7244 16.4118 17.4824C16.5329 17.2405 16.6541 16.9985 16.8357 16.817C17.0174 16.6355 17.1991 16.5146 17.5019 16.3936C17.7441 16.2726 17.9864 16.2121 18.2892 16.2121H31.673C32.1575 16.2121 32.7025 16.2726 33.2475 16.4541C33.7926 16.6355 34.3376 16.938 34.8221 17.301C35.3066 17.6639 35.7305 18.2084 36.0333 18.8133C36.3361 19.4182 36.5178 20.2046 36.5178 21.0515V21.7774C36.5178 22.5034 36.3967 23.2293 36.1544 24.0762C35.9122 24.8626 35.5488 25.649 35.0038 26.3749C35.4277 26.6774 35.8516 26.9798 36.2756 27.4033C36.6995 27.7662 37.0023 28.2502 37.3051 28.7341C37.6079 29.2181 37.8501 29.823 38.0318 30.4884C38.2135 31.1538 38.274 31.8193 38.274 32.6057V33.4526H38.3346ZM34.3376 32.6662C34.3376 32.1217 34.2771 31.6983 34.0954 31.2748C33.9137 30.8514 33.6715 30.4884 33.4292 30.186C33.1264 29.8835 32.7631 29.6415 32.3391 29.5205C31.9152 29.3996 31.4307 29.2786 30.9463 29.2786H21.8622V25.2255H29.0689C29.6139 25.2255 30.0379 25.165 30.4618 24.9836C30.8857 24.8021 31.2491 24.6206 31.5519 24.3181C31.8547 24.0157 32.0969 23.6527 32.218 23.2293C32.3997 22.8058 32.4603 22.3219 32.4603 21.8379V21.112C32.4603 20.5676 32.1575 20.2651 31.6124 20.2651H20.2877V34.2995H33.4898C33.5503 34.2995 33.6715 34.2995 33.732 34.2995C33.8531 34.2995 33.9137 34.239 34.0348 34.1785C34.0954 34.118 34.2165 34.0575 34.2771 33.9365C34.3376 33.8155 34.3982 33.6341 34.3982 33.4526V32.6662H34.3376Z" fill="#C6A15A"/>
<path d="M63.891 29.0366C63.891 30.3674 63.6488 31.6378 63.1643 32.7267C62.6798 33.8155 62.0742 34.8439 61.2263 35.6303C60.3785 36.4167 59.4095 37.0821 58.3195 37.5661C57.1688 38.05 55.9576 38.2315 54.6253 38.2315H43.785C43.4822 38.2315 43.24 38.171 42.9977 38.05C42.7555 37.9291 42.5133 37.8081 42.3316 37.6266C42.1499 37.4451 42.0288 37.2636 41.9076 36.9612C41.8471 36.8402 41.7865 36.5982 41.7865 36.2957V18.2689C41.7865 17.9664 41.8471 17.7244 41.9682 17.4824C42.0893 17.2405 42.2105 16.9985 42.3921 16.817C42.5738 16.6355 42.7555 16.5146 43.0583 16.3936C43.3005 16.2726 43.5428 16.2121 43.8456 16.2121H54.6858C56.0182 16.2121 57.2294 16.4541 58.38 16.8775C59.5307 17.3615 60.4996 17.9664 61.2869 18.8133C62.1347 19.5997 62.7404 20.6281 63.2248 21.717C63.7093 22.8663 63.9516 24.0762 63.9516 25.407V29.0366H63.891ZM59.8335 25.4675C59.8335 24.6811 59.7123 23.9552 59.4701 23.3503C59.2279 22.6848 58.8645 22.1404 58.38 21.717C57.8955 21.233 57.3505 20.9305 56.7449 20.6281C56.0787 20.3861 55.4126 20.2651 54.6253 20.2651H45.7835V34.2995H54.6253C55.4126 34.2995 56.1393 34.1785 56.7449 33.9365C57.4111 33.6945 57.9561 33.3316 58.38 32.8476C58.8645 32.3637 59.2279 31.8193 59.4701 31.2143C59.7123 30.5489 59.8335 29.8835 59.8335 29.0971V25.4675Z" fill="#C6A15A"/>
<path d="M38.3346 62.9731C38.3346 63.2756 38.274 63.5176 38.1529 63.7595C38.0318 64.0015 37.9107 64.2435 37.729 64.425C37.5473 64.6064 37.3656 64.7274 37.0628 64.8484C36.8206 64.9694 36.5783 65.0299 36.2755 65.0299C36.0333 65.0299 35.7911 64.9694 35.5488 64.9089C35.3066 64.7879 35.0643 64.6669 34.8827 64.4854L20.2877 49.1202V64.6669H16.2907V44.3413C16.2907 43.9179 16.4118 43.5549 16.654 43.2524C16.8963 42.8895 17.1991 42.6475 17.5624 42.5265C17.9258 42.345 18.3497 42.345 18.7131 42.4055C19.137 42.466 19.4398 42.6475 19.7426 42.95L34.3982 58.1942V42.6475H38.3951V62.9731H38.3346Z" fill="#C6A15A"/>
<path d="M63.891 58.1942C63.891 58.9806 63.7699 59.7065 63.5882 60.3114C63.4065 60.9163 63.1037 61.5213 62.8009 62.0052C62.4981 62.4892 62.0742 62.9126 61.6503 63.2151C61.2263 63.578 60.7419 63.82 60.2574 64.062C59.7729 64.304 59.2884 64.4249 58.8039 64.5459C58.3195 64.6669 57.835 64.7274 57.4111 64.7274H41.9682V60.7349H57.4111C58.1983 60.7349 58.8039 60.4929 59.2279 60.0695C59.6518 59.646 59.894 59.0411 59.894 58.2547C59.894 57.8917 59.8335 57.5287 59.7123 57.2263C59.5912 56.9238 59.4095 56.6818 59.2279 56.4399C59.0462 56.1979 58.7434 56.0164 58.4406 55.8954C58.1378 55.714 57.7744 55.6535 57.4111 55.6535H48.2059C47.5397 55.6535 46.8736 55.5325 46.0863 55.2905C45.3596 55.0485 44.6329 54.6856 44.0273 54.2016C43.4217 53.7177 42.8766 52.9918 42.4527 52.2054C42.0288 51.3585 41.7865 50.3301 41.7865 49.1807C41.7865 47.9709 42.0288 46.9425 42.4527 46.1561C42.8766 45.3092 43.4217 44.6438 44.0273 44.1598C44.6329 43.6759 45.3596 43.2524 46.0863 43.0104C46.813 42.7685 47.5397 42.6475 48.2059 42.6475H61.8319V46.64H48.2059C47.4186 46.64 46.8736 46.882 46.4497 47.3054C46.0257 47.7894 45.7835 48.3943 45.7835 49.1202C45.7835 49.9066 46.0257 50.5116 46.4497 50.935C46.8736 51.3585 47.4792 51.6004 48.2059 51.6004H57.4111H57.4716C57.8955 51.6004 58.38 51.6609 58.8645 51.7819C59.349 51.9029 59.8335 52.0844 60.3179 52.2659C60.8024 52.5078 61.2263 52.7498 61.7108 53.1128C62.1348 53.4757 62.4981 53.8387 62.8615 54.3226C63.2248 54.8066 63.4671 55.351 63.6488 55.9559C63.7699 56.6818 63.891 57.4078 63.891 58.1942Z" fill="#C6A15A"/>
<path d="M79.0916 0.907379H0.908417V80.0926H79.0916V0.907379Z" stroke="#C6A15A" stroke-width="3" stroke-miterlimit="10"/>
</g>
<defs>
<clipPath id="clip0_55_26">
<rect width="80" height="81" fill="white"/>
</clipPath>
</defs>
</svg>
